<svg width="124" height="23" viewBox="0 0 124 23" fill="none" xmlns="http://www.w3.org/2000/svg">
<rect x="2" y="2.19043" width="12" height="19.7143" rx="1" fill="#D21F3C"/>
<rect x="1" y="1.09521" width="12" height="19.7143" rx="1" fill="white"/>
<rect width="12" height="19.7143" rx="1" fill="#D21F3C"/>
<path d="M5.98037 2.69409L6.09905 11.8716L2.41269 10.9992L5.98037 2.69409Z" fill="white"/>
<path d="M5.1752 17.635L8.74288 9.32988L5.05652 8.45751L5.1752 17.635Z" fill="white"/>
<path d="M31.44 18.2952C31.0773 18.7432 30.6347 19.0845 30.112 19.3192C29.6 19.5539 29.0347 19.6712 28.416 19.6712C27.584 19.6712 26.832 19.4899 26.16 19.1272C25.488 18.7752 24.72 18.1459 23.856 17.2392C22.8427 17.1112 21.936 16.7859 21.136 16.2632C20.3467 15.7405 19.728 15.0685 19.28 14.2472C18.8427 13.4152 18.624 12.4979 18.624 11.4952C18.624 10.3965 18.8853 9.40988 19.408 8.53521C19.9413 7.64988 20.672 6.95655 21.6 6.45521C22.5387 5.95388 23.5893 5.70321 24.752 5.70321C25.9147 5.70321 26.96 5.95388 27.888 6.45521C28.816 6.95655 29.5467 7.64988 30.08 8.53521C30.6133 9.40988 30.88 10.3965 30.88 11.4952C30.88 12.7965 30.512 13.9379 29.776 14.9192C29.0507 15.9005 28.0853 16.5832 26.88 16.9672C27.1467 17.2445 27.4027 17.4419 27.648 17.5592C27.904 17.6872 28.176 17.7512 28.464 17.7512C29.1573 17.7512 29.7653 17.4739 30.288 16.9192L31.44 18.2952ZM21.248 11.4952C21.248 12.1885 21.3973 12.8072 21.696 13.3512C22.0053 13.8952 22.4267 14.3219 22.96 14.6312C23.4933 14.9299 24.0907 15.0792 24.752 15.0792C25.4133 15.0792 26.0107 14.9299 26.544 14.6312C27.0773 14.3219 27.4933 13.8952 27.792 13.3512C28.1013 12.8072 28.256 12.1885 28.256 11.4952C28.256 10.8019 28.1013 10.1832 27.792 9.63921C27.4933 9.09521 27.0773 8.67388 26.544 8.37521C26.0107 8.06588 25.4133 7.91121 24.752 7.91121C24.0907 7.91121 23.4933 8.06588 22.96 8.37521C22.4267 8.67388 22.0053 9.09521 21.696 9.63921C21.3973 10.1832 21.248 10.8019 21.248 11.4952ZM41.324 8.48721V17.0952H38.956V16.0712C38.6253 16.4445 38.2307 16.7325 37.772 16.9352C37.3133 17.1272 36.8173 17.2232 36.284 17.2232C35.1533 17.2232 34.2573 16.8979 33.596 16.2472C32.9347 15.5965 32.604 14.6312 32.604 13.3512V8.48721H35.1V12.9832C35.1 14.3699 35.6813 15.0632 36.844 15.0632C37.4413 15.0632 37.9213 14.8712 38.284 14.4872C38.6467 14.0925 38.828 13.5112 38.828 12.7432V8.48721H41.324ZM43.6364 8.48721H46.1324V17.0952H43.6364V8.48721ZM44.8844 7.28721C44.4257 7.28721 44.0524 7.15388 43.7644 6.88721C43.4764 6.62055 43.3324 6.28988 43.3324 5.89521C43.3324 5.50055 43.4764 5.16988 43.7644 4.90321C44.0524 4.63655 44.4257 4.50321 44.8844 4.50321C45.343 4.50321 45.7164 4.63121 46.0044 4.88721C46.2924 5.14321 46.4364 5.46321 46.4364 5.84721C46.4364 6.26321 46.2924 6.60988 46.0044 6.88721C45.7164 7.15388 45.343 7.28721 44.8844 7.28721ZM52.6089 17.2232C51.6915 17.2232 50.8649 17.0365 50.1289 16.6632C49.4035 16.2792 48.8329 15.7512 48.4169 15.0792C48.0115 14.4072 47.8089 13.6445 47.8089 12.7912C47.8089 11.9379 48.0115 11.1752 48.4169 10.5032C48.8329 9.83121 49.4035 9.30855 50.1289 8.93521C50.8649 8.55121 51.6915 8.35921 52.6089 8.35921C53.5155 8.35921 54.3049 8.55121 54.9769 8.93521C55.6595 9.30855 56.1555 9.84721 56.4649 10.5512L54.5289 11.5912C54.0809 10.8019 53.4355 10.4072 52.5929 10.4072C51.9422 10.4072 51.4035 10.6205 50.9769 11.0472C50.5502 11.4739 50.3369 12.0552 50.3369 12.7912C50.3369 13.5272 50.5502 14.1085 50.9769 14.5352C51.4035 14.9619 51.9422 15.1752 52.5929 15.1752C53.4462 15.1752 54.0915 14.7805 54.5289 13.9912L56.4649 15.0472C56.1555 15.7299 55.6595 16.2632 54.9769 16.6472C54.3049 17.0312 53.5155 17.2232 52.6089 17.2232ZM61.5355 13.7192L60.3355 14.9032V17.0952H57.8395V5.22321H60.3355V11.9432L63.9835 8.48721H66.9595L63.3755 12.1352L67.2795 17.0952H64.2555L61.5355 13.7192ZM73.1093 5.89521H78.1973C79.4133 5.89521 80.4853 6.12988 81.4133 6.59921C82.3519 7.05788 83.0773 7.70855 83.5893 8.55121C84.1119 9.39388 84.3733 10.3752 84.3733 11.4952C84.3733 12.6152 84.1119 13.5965 83.5893 14.4392C83.0773 15.2819 82.3519 15.9379 81.4133 16.4072C80.4853 16.8659 79.4133 17.0952 78.1973 17.0952H73.1093V5.89521ZM78.0693 14.9672C79.1893 14.9672 80.0799 14.6579 80.7413 14.0392C81.4133 13.4099 81.7493 12.5619 81.7493 11.4952C81.7493 10.4285 81.4133 9.58588 80.7413 8.96721C80.0799 8.33788 79.1893 8.02321 78.0693 8.02321H75.7013V14.9672H78.0693ZM94.584 12.8232C94.584 12.8552 94.568 13.0792 94.536 13.4952H88.024C88.1413 14.0285 88.4187 14.4499 88.856 14.7592C89.2933 15.0685 89.8373 15.2232 90.488 15.2232C90.936 15.2232 91.3307 15.1592 91.672 15.0312C92.024 14.8925 92.3493 14.6792 92.648 14.3912L93.976 15.8312C93.1653 16.7592 91.9813 17.2232 90.424 17.2232C89.4533 17.2232 88.5947 17.0365 87.848 16.6632C87.1013 16.2792 86.5253 15.7512 86.12 15.0792C85.7147 14.4072 85.512 13.6445 85.512 12.7912C85.512 11.9485 85.7093 11.1912 86.104 10.5192C86.5093 9.83655 87.0587 9.30855 87.752 8.93521C88.456 8.55121 89.24 8.35921 90.104 8.35921C90.9467 8.35921 91.7093 8.54055 92.392 8.90321C93.0747 9.26588 93.608 9.78855 93.992 10.4712C94.3867 11.1432 94.584 11.9272 94.584 12.8232ZM90.12 10.2472C89.5547 10.2472 89.08 10.4072 88.696 10.7272C88.312 11.0472 88.0773 11.4845 87.992 12.0392H92.232C92.1467 11.4952 91.912 11.0632 91.528 10.7432C91.144 10.4125 90.6747 10.2472 90.12 10.2472ZM100.406 17.2232C99.4884 17.2232 98.6618 17.0365 97.9258 16.6632C97.2004 16.2792 96.6298 15.7512 96.2138 15.0792C95.8084 14.4072 95.6058 13.6445 95.6058 12.7912C95.6058 11.9379 95.8084 11.1752 96.2138 10.5032C96.6298 9.83121 97.2004 9.30855 97.9258 8.93521C98.6618 8.55121 99.4884 8.35921 100.406 8.35921C101.312 8.35921 102.102 8.55121 102.774 8.93521C103.456 9.30855 103.952 9.84721 104.262 10.5512L102.326 11.5912C101.878 10.8019 101.232 10.4072 100.39 10.4072C99.7391 10.4072 99.2004 10.6205 98.7738 11.0472C98.3471 11.4739 98.1338 12.0552 98.1338 12.7912C98.1338 13.5272 98.3471 14.1085 98.7738 14.5352C99.2004 14.9619 99.7391 15.1752 100.39 15.1752C101.243 15.1752 101.888 14.7805 102.326 13.9912L104.262 15.0472C103.952 15.7299 103.456 16.2632 102.774 16.6472C102.102 17.0312 101.312 17.2232 100.406 17.2232ZM109.332 13.7192L108.132 14.9032V17.0952H105.636V5.22321H108.132V11.9432L111.78 8.48721H114.756L111.172 12.1352L115.076 17.0952H112.052L109.332 13.7192ZM118.814 17.2232C118.099 17.2232 117.4 17.1379 116.718 16.9672C116.035 16.7859 115.491 16.5619 115.086 16.2952L115.918 14.5032C116.302 14.7485 116.766 14.9512 117.31 15.1112C117.854 15.2605 118.387 15.3352 118.91 15.3352C119.966 15.3352 120.494 15.0739 120.494 14.5512C120.494 14.3059 120.35 14.1299 120.062 14.0232C119.774 13.9165 119.331 13.8259 118.734 13.7512C118.03 13.6445 117.448 13.5219 116.99 13.3832C116.531 13.2445 116.131 12.9992 115.79 12.6472C115.459 12.2952 115.294 11.7939 115.294 11.1432C115.294 10.5992 115.448 10.1192 115.758 9.70321C116.078 9.27655 116.536 8.94588 117.134 8.71121C117.742 8.47655 118.456 8.35921 119.278 8.35921C119.886 8.35921 120.488 8.42855 121.086 8.56721C121.694 8.69521 122.195 8.87655 122.59 9.11121L121.758 10.8872C121 10.4605 120.174 10.2472 119.278 10.2472C118.744 10.2472 118.344 10.3219 118.078 10.4712C117.811 10.6205 117.678 10.8125 117.678 11.0472C117.678 11.3139 117.822 11.5005 118.11 11.6072C118.398 11.7139 118.856 11.8152 119.486 11.9112C120.19 12.0285 120.766 12.1565 121.214 12.2952C121.662 12.4232 122.051 12.6632 122.382 13.0152C122.712 13.3672 122.878 13.8579 122.878 14.4872C122.878 15.0205 122.718 15.4952 122.398 15.9112C122.078 16.3272 121.608 16.6525 120.99 16.8872C120.382 17.1112 119.656 17.2232 118.814 17.2232Z" fill="#D21F3C"/>
</svg>
