<svg width="33" height="27" viewBox="0 0 33 27" fill="none" xmlns="http://www.w3.org/2000/svg">
<path d="M0.999999 0C0.447714 0 0 0.447715 0 1V25.8227C0 26.375 0.447715 26.8227 1 26.8227H16.5745C17.1268 26.8227 17.5745 26.375 17.5745 25.8227V17.4616C17.5745 16.9094 17.1268 16.4616 16.5745 16.4616H14.2783C13.7261 16.4616 13.2783 16.0139 13.2783 15.4616V13.232C13.2783 12.6797 13.7261 12.232 14.2783 12.232H16.5745C17.1268 12.232 17.5745 11.7843 17.5745 11.232V8.67981C17.5745 6.09642 20.151 4.00219 23.3294 4.00219H26.8207C27.373 4.00219 27.8207 4.4499 27.8207 5.00219V6.80561C27.8207 7.3579 27.373 7.80561 26.8207 7.80561H24.6069C23.597 7.80561 22.7783 8.47111 22.7783 9.29198V11.232C22.7783 11.7843 23.226 12.232 23.7783 12.232H26.5648C27.1809 12.232 27.6505 12.7839 27.5519 13.3921L27.1904 15.6217C27.1119 16.1059 26.6938 16.4617 26.2033 16.4617H23.7783C23.226 16.4617 22.7783 16.9094 22.7783 17.4617V25.8227C22.7783 26.375 23.226 26.8227 23.7783 26.8227H32C32.5523 26.8227 33 26.375 33 25.8227V1C33 0.447716 32.5523 0 32 0H0.999999Z" fill="white"/>
</svg>
