<svg width="40" height="36" viewBox="0 0 40 36" fill="none" xmlns="http://www.w3.org/2000/svg">
<path d="M28.0838 0.191406H11.9162C5.34559 0.191406 0 4.9323 0 10.7597V25.0983C0 30.9257 5.34559 35.6666 11.9162 35.6666H28.0838C34.6544 35.6666 40 30.9257 40 25.0983V10.7597C39.9999 4.9323 34.6543 0.191406 28.0838 0.191406ZM35.976 25.0983C35.976 28.964 32.4425 32.0978 28.0838 32.0978H11.9162C7.5575 32.0978 4.024 28.964 4.024 25.0983V10.7597C4.024 6.89393 7.5575 3.76021 11.9162 3.76021H28.0838C32.4425 3.76021 35.976 6.89393 35.976 10.7597V25.0983Z" fill="white"/>
<path d="M20 8.75391C14.2955 8.75391 9.65454 12.8699 9.65454 17.929C9.65454 22.9881 14.2955 27.1041 20 27.1041C25.7044 27.1041 30.3454 22.9882 30.3454 17.929C30.3454 12.8698 25.7044 8.75391 20 8.75391ZM20 23.5354C16.5087 23.5354 13.6785 21.0254 13.6785 17.9291C13.6785 14.8327 16.5088 12.3227 20 12.3227C23.4912 12.3227 26.3214 14.8327 26.3214 17.9291C26.3214 21.0253 23.4911 23.5354 20 23.5354Z" fill="white"/>
<path d="M30.3655 11.0214C31.7346 11.0214 32.8444 10.037 32.8444 8.82282C32.8444 7.60859 31.7346 6.62427 30.3655 6.62427C28.9963 6.62427 27.8865 7.60859 27.8865 8.82282C27.8865 10.037 28.9963 11.0214 30.3655 11.0214Z" fill="white"/>
</svg>
