<svg width="38" height="32" viewBox="0 0 38 32" fill="none" xmlns="http://www.w3.org/2000/svg">
<path d="M34.5626 0.787109H3.43741C1.539 0.787109 0 2.04864 0 3.60478V29.1183C0 30.6745 1.539 31.936 3.43741 31.936H34.5625C36.461 31.936 38 30.6745 38 29.1183V3.60478C38 2.04864 36.461 0.787109 34.5626 0.787109ZM11.7588 27.6832C11.7588 28.136 11.311 28.5031 10.7585 28.5031H6.50029C5.9478 28.5031 5.49995 28.136 5.49995 27.6832V13.0512C5.49995 12.5983 5.9478 12.2312 6.50029 12.2312H10.7585C11.311 12.2312 11.7588 12.5983 11.7588 13.0512V27.6832ZM8.62938 10.852C6.39524 10.852 4.58407 9.36734 4.58407 7.53599C4.58407 5.70465 6.39524 4.22002 8.62938 4.22002C10.8635 4.22002 12.6747 5.70465 12.6747 7.53599C12.6747 9.36734 10.8636 10.852 8.62938 10.852ZM34.012 27.7492C34.012 28.1656 33.6002 28.5031 33.0922 28.5031H28.5229C28.015 28.5031 27.6031 28.1656 27.6031 27.7492V20.886C27.6031 19.8622 27.9695 16.3995 24.339 16.3995C21.5229 16.3995 20.9517 18.7696 20.837 19.8332V27.7492C20.837 28.1656 20.4253 28.5031 19.9173 28.5031H15.4979C14.99 28.5031 14.5782 28.1656 14.5782 27.7492V12.9852C14.5782 12.5688 14.99 12.2312 15.4979 12.2312H19.9173C20.4252 12.2312 20.837 12.5688 20.837 12.9852V14.2617C21.8812 12.9772 23.4331 11.9857 26.7372 11.9857C34.0539 11.9857 34.012 17.5889 34.012 20.6676V27.7492Z" fill="white"/>
</svg>
