<svg width="41" height="32" viewBox="0 0 41 32" fill="none" xmlns="http://www.w3.org/2000/svg">
<path d="M40.3479 4.4943C39.437 4.85233 38.4913 5.1348 37.521 5.33929C38.5902 4.43874 39.3941 3.31235 39.8476 2.05509C39.9771 1.69617 39.5372 1.38579 39.1716 1.57797C37.8217 2.28767 36.3676 2.82008 34.8497 3.16057C34.7616 3.18033 34.6708 3.19034 34.5796 3.19034C34.3031 3.19034 34.0343 3.09935 33.8229 2.9342C32.2079 1.6726 30.1308 0.977783 27.9743 0.977783C27.0411 0.977783 26.099 1.1067 25.1739 1.36099C22.3078 2.14892 20.0964 4.24444 19.4025 6.82984C19.1422 7.79958 19.0718 8.77021 19.1929 9.71471C19.2068 9.82325 19.1489 9.899 19.1132 9.93453C19.0506 9.99681 18.9617 10.0325 18.8694 10.0325C18.8591 10.0325 18.8485 10.0321 18.838 10.0312C12.5642 9.51456 6.90675 6.83551 2.90777 2.48764C2.70384 2.26587 2.31279 2.29308 2.15025 2.54019C1.36715 3.73099 0.953305 5.09298 0.953305 6.47888C0.953305 8.60284 1.91604 10.6044 3.58831 12.0636C2.88507 11.9158 2.20443 11.6831 1.57217 11.3718C1.26629 11.2212 0.889928 11.4148 0.88563 11.7249C0.841847 14.8802 2.92606 17.6878 6.04828 18.9521C5.9854 18.9534 5.92253 18.954 5.85955 18.954C5.36464 18.954 4.86353 18.9116 4.37031 18.8281C4.02584 18.7698 3.73645 19.0594 3.84341 19.3555C4.85683 22.1598 7.581 24.2269 10.841 24.6962C8.13539 26.306 4.98468 27.1552 1.70542 27.1552L0.683107 27.1546C0.368126 27.1546 0.101727 27.3366 0.0214569 27.607C-0.0576132 27.8734 0.0880317 28.1543 0.35663 28.2928C4.05183 30.1989 8.26674 31.2063 12.5475 31.2063C16.2946 31.2063 19.7997 30.5472 22.9655 29.2474C25.8677 28.0558 28.4323 26.3524 30.5881 24.1846C32.5963 22.1652 34.1667 19.834 35.2555 17.2559C36.2934 14.7983 36.842 12.1761 36.842 9.67253V9.55328C36.8419 9.15129 37.0471 8.77305 37.4049 8.51557C38.7629 7.53829 39.9455 6.38789 40.9196 5.09634C41.1768 4.75532 40.7711 4.3279 40.3479 4.4943Z" fill="white"/>
</svg>
