<svg width="42" height="35" viewBox="0 0 42 35" fill="none" xmlns="http://www.w3.org/2000/svg">
<path d="M41.1347 5.5956C40.6505 3.51989 39.2319 1.88372 37.433 1.32478C34.1463 0.287109 20.9996 0.287109 20.9996 0.287109C20.9996 0.287109 7.85318 0.287109 4.56649 1.28522C2.80219 1.8438 1.34902 3.52026 0.864849 5.5956C0 9.38696 0 17.2499 0 17.2499C0 17.2499 0 25.1524 0.864849 28.9042C1.34934 30.9795 2.76758 32.6161 4.56681 33.175C7.88778 34.2127 20.9999 34.2127 20.9999 34.2127C20.9999 34.2127 34.1463 34.2127 37.433 33.2146C39.2322 32.656 40.6505 31.0194 41.135 28.9441C41.9998 25.1524 41.9998 17.2898 41.9998 17.2898C41.9998 17.2898 42.0344 9.38696 41.1347 5.5956Z" fill="white"/>
<path d="M16.8137 24.514L27.746 17.2499L16.8137 9.98584V24.514Z" fill="#D21F3C"/>
</svg>
